<svg height="512" viewBox="0 0 512 512" width="512" xmlns="http://www.w3.org/2000/svg" xmlns:xlink="http://www.w3.org/1999/xlink"><linearGradient id="New_Gradient_Swatch_2" gradientUnits="userSpaceOnUse" x1="256" x2="256" y1="48.687" y2="438.004"><stop offset="0" stop-color="#fc5c7d"/><stop offset=".129" stop-color="#f35e85"/><stop offset=".343" stop-color="#d9659b"/><stop offset=".616" stop-color="#b070bf"/><stop offset=".934" stop-color="#777ff0"/><stop offset="1" stop-color="#6a82fb"/></linearGradient><linearGradient id="New_Gradient_Swatch_2-2" x1="128" x2="128" xlink:href="#New_Gradient_Swatch_2" y1="48.687" y2="438.004"/><linearGradient id="New_Gradient_Swatch_2-3" x1="112" x2="112" xlink:href="#New_Gradient_Swatch_2" y1="48.687" y2="438.004"/><linearGradient id="New_Gradient_Swatch_2-5" x1="160" x2="160" xlink:href="#New_Gradient_Swatch_2" y1="48.687" y2="438.004"/><linearGradient id="New_Gradient_Swatch_2-6" x1="208" x2="208" xlink:href="#New_Gradient_Swatch_2" y1="48.687" y2="438.004"/><linearGradient id="New_Gradient_Swatch_2-8" x1="304" x2="304" xlink:href="#New_Gradient_Swatch_2" y1="48.687" y2="438.004"/><linearGradient id="New_Gradient_Swatch_2-10" x1="140" x2="140" xlink:href="#New_Gradient_Swatch_2" y1="48.687" y2="438.004"/><linearGradient id="New_Gradient_Swatch_2-11" x1="124" x2="124" xlink:href="#New_Gradient_Swatch_2" y1="48.687" y2="438.004"/><g id="GD001"><path d="m440 272h-16v16h-16v-16h-16v16h-136a104.159 104.159 0 0 0 -95.995 64h-8a32.036 32.036 0 0 0 -32 32v16h-16.005a8 8 0 0 0 -8 8v72h-32v-280h288v72h16v-80a8 8 0 0 0 -8-8h-40v-17.013a32 32 0 0 0 -8-62.987h-160a32 32 0 0 0 -8 62.987v17.013h-88a8 8 0 0 0 -8 8v288h-32v16h480v-16h-32v-16a32.036 32.036 0 0 0 -32-32h-16v-24a8 8 0 0 0 -8-8h-48.3q.3-3.962.305-8a104.186 104.186 0 0 0 -7.983-40h39.978v16h16v-16h16v16h16v-16h56v-16h-56v-32h56v-16h-56zm-304-136a16.019 16.019 0 0 1 16-16h160a16 16 0 0 1 0 32h-160a16.019 16.019 0 0 1 -16-16zm24 32h144v16h-144zm-24 216a16.019 16.019 0 0 1 16-16h2.8a103.939 103.939 0 0 0 -2.8 24q0 4.036.305 8h-16.305zm-24 96v-64h42.8a104.35 104.35 0 0 0 45.837 64zm320-32a16.019 16.019 0 0 1 16 16v16h-32v-32zm-32-32v64h-88.637a104.35 104.35 0 0 0 45.837-64zm-60.846-80a8 8 0 0 0 -6.925 12.006 88.01 88.01 0 1 1 -76.229-44.006h136v32zm84.846 0h-16v-32h16z" fill="url(#New_Gradient_Swatch_2)"/><path d="m184 88v-32a8 8 0 0 0 -8-8h-32v-24h-16v24h-16v-40h-16v40h-16a8 8 0 0 0 -8 8v112h16v-104h80v24z" fill="url(#New_Gradient_Swatch_2-2)"/><path d="m104 80h16v16h-16z" fill="url(#New_Gradient_Swatch_2-3)"/><path d="m96 224h32v16h-32z" fill="url(#New_Gradient_Swatch_2-3)"/><path d="m144 224h32v16h-32z" fill="url(#New_Gradient_Swatch_2-5)"/><path d="m192 224h32v16h-32z" fill="url(#New_Gradient_Swatch_2-6)"/><path d="m240 224h32v16h-32z" fill="url(#New_Gradient_Swatch_2)"/><path d="m288 224h32v16h-32z" fill="url(#New_Gradient_Swatch_2-8)"/><path d="m96 256h224v16h-224z" fill="url(#New_Gradient_Swatch_2-6)"/><path d="m96 288h88v16h-88z" fill="url(#New_Gradient_Swatch_2-10)"/><path d="m96 320h56v16h-56z" fill="url(#New_Gradient_Swatch_2-11)"/><path d="m256 336a56 56 0 1 0 56 56 56.063 56.063 0 0 0 -56-56zm34.783 36.286-15.75 5.118a24.109 24.109 0 0 0 -11.033-8.028v-16.571a40.121 40.121 0 0 1 26.783 19.481zm-42.783 19.714a8 8 0 1 1 8 8 8.009 8.009 0 0 1 -8-8zm0-39.195v16.571a24.109 24.109 0 0 0 -11.033 8.028l-15.75-5.118a40.121 40.121 0 0 1 26.783-19.481zm-32 39.195a40.312 40.312 0 0 1 .26-4.5l15.756 5.12a23.846 23.846 0 0 0 4.22 12.975l-9.731 13.393a39.841 39.841 0 0 1 -10.505-26.988zm23.443 36.4 9.731-13.393a23.912 23.912 0 0 0 13.652 0l9.731 13.393a39.854 39.854 0 0 1 -33.114 0zm46.052-9.411-9.731-13.393a23.846 23.846 0 0 0 4.22-12.975l15.756-5.12a40.312 40.312 0 0 1 .26 4.499 39.841 39.841 0 0 1 -10.5 26.987z" fill="url(#New_Gradient_Swatch_2)"/></g></svg>