<svg height="512" viewBox="0 0 64 64" width="512" xmlns="http://www.w3.org/2000/svg" xmlns:xlink="http://www.w3.org/1999/xlink"><linearGradient id="New_Gradient_Swatch_2" gradientUnits="userSpaceOnUse" x1="31.153" x2="31.153" y1="-1.976" y2="65.005"><stop offset="0" stop-color="#fc5c7d"/><stop offset=".129" stop-color="#f35e85"/><stop offset=".343" stop-color="#d9659b"/><stop offset=".616" stop-color="#b070bf"/><stop offset=".934" stop-color="#777ff0"/><stop offset="1" stop-color="#6a82fb"/></linearGradient><linearGradient id="New_Gradient_Swatch_2-2" x1="31.672" x2="31.672" xlink:href="#New_Gradient_Swatch_2" y1="-1.976" y2="65.005"/><linearGradient id="New_Gradient_Swatch_2-3" x1="47" x2="47" xlink:href="#New_Gradient_Swatch_2" y1="-1.976" y2="65.005"/><linearGradient id="New_Gradient_Swatch_2-4" x1="11" x2="11" xlink:href="#New_Gradient_Swatch_2" y1="-1.976" y2="65.005"/><linearGradient id="New_Gradient_Swatch_2-5" x1="32" x2="32" xlink:href="#New_Gradient_Swatch_2" y1="-1.976" y2="65.005"/><linearGradient id="New_Gradient_Swatch_2-6" x1="53" x2="53" xlink:href="#New_Gradient_Swatch_2" y1="-1.976" y2="65.005"/><linearGradient id="New_Gradient_Swatch_2-7" x1="23.295" x2="23.295" xlink:href="#New_Gradient_Swatch_2" y1="-1.976" y2="65.005"/><path d="m32 46a3 3 0 0 1 1.984.75l1.323-1.5a5 5 0 1 0 0 7.5l-1.323-1.5a3 3 0 1 1 -1.984-5.25z" fill="url(#New_Gradient_Swatch_2)"/><path d="m38.491 46.375 1.854-.75a9 9 0 1 0 0 6.75l-1.854-.75a7 7 0 1 1 0-5.25z" fill="url(#New_Gradient_Swatch_2-2)"/><path d="m61 45h-8a1 1 0 0 0 -.707.293l-2.707 2.707h-17.586v2h17.586l2.707 2.707a1 1 0 0 0 .707.293h8a1 1 0 0 0 1-1v-6a1 1 0 0 0 -1-1zm-1 6h-6.586l-2-2 2-2h6.586z" fill="url(#New_Gradient_Swatch_2-3)"/><path d="m10 37h2v6h-2z" fill="url(#New_Gradient_Swatch_2-4)"/><path d="m58 43v-7.88a5 5 0 0 0 -3.788-4.85l-4.212-1.051v-.648a4.587 4.587 0 0 0 2-3.811v-5.76a6 6 0 1 0 -12 0v1.219l-4-1v-.65a4.59 4.59 0 0 0 2-3.8v-5.769a6 6 0 0 0 -12 0v5.764a4.59 4.59 0 0 0 2 3.805v.65l-4 1v-1.219a6 6 0 0 0 -12 0v5.76a4.587 4.587 0 0 0 2 3.811v.648l-4.215 1.052a5 5 0 0 0 -3.785 4.849v7.88h2v-7.88a3 3 0 0 1 2.272-2.909l4.97-1.24a1 1 0 0 0 .758-.971v-2a1 1 0 0 0 -.556-.9 2.6 2.6 0 0 1 -1.444-2.34v-5.76a4 4 0 1 1 8 0v5.76a2.6 2.6 0 0 1 -1.444 2.34 1 1 0 0 0 -.556.9v2a1 1 0 0 0 .758.971l4.967 1.239a3.015 3.015 0 0 1 2.275 2.819l2-.058a5.026 5.026 0 0 0 -3.786-4.7l-4.214-1.052v-.648a4.587 4.587 0 0 0 2-3.811v-2.439c.093-.033.176-.085.272-.109l4.97-1.242a1 1 0 0 0 .758-.97v-2a1 1 0 0 0 -.553-.895 2.6 2.6 0 0 1 -1.447-2.341v-5.764a4 4 0 0 1 8 0v5.764a2.6 2.6 0 0 1 -1.447 2.341 1 1 0 0 0 -.553.895v2a1 1 0 0 0 .758.97l4.969 1.242c.093.023.183.057.273.089v2.459a4.587 4.587 0 0 0 2 3.811v.648l-4.215 1.052a5.025 5.025 0 0 0 -3.785 4.7l2 .058a3.014 3.014 0 0 1 2.27-2.818l4.97-1.24a1 1 0 0 0 .76-.971v-2a1 1 0 0 0 -.556-.9 2.6 2.6 0 0 1 -1.444-2.34v-5.76a4 4 0 0 1 8 0v5.76a2.6 2.6 0 0 1 -1.444 2.34 1 1 0 0 0 -.556.9v2a1 1 0 0 0 .758.971l4.967 1.239a3 3 0 0 1 2.275 2.91v7.88z" fill="url(#New_Gradient_Swatch_2-5)"/><path d="m52 37h2v6h-2z" fill="url(#New_Gradient_Swatch_2-6)"/><path d="m2.423 49.816 4 2.829a1 1 0 0 0 1.154 0l3.741-2.645h7.733a12.995 12.995 0 0 0 25.54 2.249l-1.938-.5a11 11 0 1 1 0-5.5l1.938-.5a12.995 12.995 0 0 0 -25.54 2.251h-7.733l-3.741-2.645a1 1 0 0 0 -1.154 0l-4 2.829a1 1 0 0 0 0 1.632zm4.577-2.416 2.268 1.6-2.268 1.6-2.268-1.6z" fill="url(#New_Gradient_Swatch_2-7)"/></svg>